<svg width="220" height="138" viewBox="0 0 220 138" fill="none" xmlns="http://www.w3.org/2000/svg">
<path d="M76.0184 7.77321C76.0184 11.2413 81.5771 14.0528 77.709 14.0528C73.8408 14.0528 70.7051 11.2413 70.7051 7.77321C70.7051 4.3051 73.8408 1.49365 77.709 1.49365C81.5771 1.49365 76.0184 4.3051 76.0184 7.77321Z" fill="#FE964A"/>
<path d="M130.946 4.74365L131.886 7.63636H134.928L132.467 9.42416L133.407 12.3169L130.946 10.5291L128.485 12.3169L129.425 9.42416L126.965 7.63636H130.006L130.946 4.74365Z" fill="#FE964A"/>
<path d="M28.1271 65.8914C28.1271 65.8914 37.0501 61.4472 39.0743 63.7766C40.1863 65.0563 41.0261 66.6063 40.0301 67.8656C39.2624 68.8363 38.154 68.9601 36.8553 68.732C34.105 68.249 34.1467 64.4298 35.2507 62.0644C36.775 58.7986 44.8664 60.7262 44.8664 60.7262" stroke="#0BA259" stroke-width="1.67455"/>
<circle cx="189.876" cy="61.4393" r="4.8841" fill="#FFEDEC"/>
<path d="M46.1142 112.66L46.8091 106.666L51.6537 109.738L52.2059 104.709L56.6248 107.753L58.0011 102.318" stroke="#E8D7FF" stroke-width="1.39546"/>
<path d="M160.062 17.9645C160.062 17.9645 159.383 13.9292 161.332 13.1249C162.97 12.4492 164.39 15.4373 165.735 14.354C167.099 13.2567 163.696 11.5182 164.804 10.2057C165.97 8.82438 169.715 10.2057 169.715 10.2057" stroke="#2D6BB4" stroke-width="1.67455"/>
<path d="M26.9419 11.9156L44.8792 20.8453L40.396 26.959L26.9419 11.9156Z" fill="#2D6BB4"/>
<circle cx="185.833" cy="78.0595" r="2.09319" fill="#FFEDEC"/>
<path d="M165.719 105.613C168.02 105.845 170.256 102.345 169.997 104.911C169.739 107.477 167.665 109.369 165.365 109.138C163.064 108.906 161.409 106.638 161.667 104.072C161.925 101.507 163.419 105.382 165.719 105.613Z" fill="#2D6BB4"/>
<path d="M173.186 32.1343L174.753 36.9555H179.822L175.721 39.9351L177.287 44.7563L173.186 41.7766L169.085 44.7563L170.652 39.9351L166.55 36.9555H171.62L173.186 32.1343Z" fill="#0BA259"/>
<rect x="68.3262" y="21.2007" width="83.0189" height="83.0189" rx="41.5094" fill="#E0E9F4"/>
<g filter="url(#filter0_d_6249_3716)">
<rect x="84.9297" y="37.8042" width="49.8113" height="49.8113" rx="24.9057" fill="white" shape-rendering="crispEdges"/>
<path fill-rule="evenodd" clip-rule="evenodd" d="M118.871 56.7873C119.276 57.1926 119.276 57.8497 118.871 58.2549L108.493 68.6323C108.088 69.0375 107.431 69.0375 107.026 68.6323L101.837 63.4436C101.432 63.0383 101.432 62.3813 101.837 61.976C102.242 61.5708 102.899 61.5708 103.305 61.976L107.76 66.4309L117.403 56.7873C117.808 56.3821 118.466 56.3821 118.871 56.7873Z" fill="#2D6BB4"/>
</g>
<defs>
<filter id="filter0_d_6249_3716" x="51.7221" y="21.2004" width="116.226" height="116.227" filterUnits="userSpaceOnUse" color-interpolation-filters="sRGB">
<feFlood flood-opacity="0" result="BackgroundImageFix"/>
<feColorMatrix in="SourceAlpha" type="matrix" values="0 0 0 0 0 0 0 0 0 0 0 0 0 0 0 0 0 0 127 0" result="hardAlpha"/>
<feOffset dy="16.6038"/>
<feGaussianBlur stdDeviation="16.6038"/>
<feComposite in2="hardAlpha" operator="out"/>
<feColorMatrix type="matrix" values="0 0 0 0 0.415686 0 0 0 0 0.258824 0 0 0 0 0.760784 0 0 0 0.3 0"/>
<feBlend mode="normal" in2="BackgroundImageFix" result="effect1_dropShadow_6249_3716"/>
<feBlend mode="normal" in="SourceGraphic" in2="effect1_dropShadow_6249_3716" result="shape"/>
</filter>
</defs>
</svg>
