<svg width="194" height="141" viewBox="0 0 194 141" fill="none" xmlns="http://www.w3.org/2000/svg">
<path d="M185.148 36.5898H99.7812V38.7681H185.148V36.5898Z" stroke="#FF95FB" stroke-width="1.5" stroke-miterlimit="10" stroke-linecap="round" stroke-linejoin="round"/>
<path d="M146.099 4.68945H139.633V6.89263H146.099V4.68945Z" fill="white" stroke="#FF95FB" stroke-width="1.5" stroke-miterlimit="10" stroke-linecap="round" stroke-linejoin="round"/>
<path d="M145.365 18.5941V6.89648H140.353V18.5983C136.489 19.6832 133.652 23.2167 133.652 27.411C133.652 32.47 137.775 36.5729 142.859 36.5729C147.943 36.5729 152.066 32.47 152.066 27.411C152.066 23.2167 149.229 19.6832 145.365 18.5941Z" fill="white" stroke="#FF95FB" stroke-width="1.5" stroke-miterlimit="10" stroke-linecap="round" stroke-linejoin="round"/>
<path d="M136.761 23.0293C135.854 24.2764 135.328 25.7978 135.328 27.4107C135.328 31.5469 138.708 34.9098 142.864 34.9098C147.02 34.9098 150.4 31.5469 150.4 27.4107C150.4 25.802 149.873 24.2805 148.967 23.0293H136.761Z" fill="#FF95FB"/>
<path d="M168.033 11.1582H161.566V13.3614H168.033V11.1582Z" fill="white" stroke="#FF95FB" stroke-width="1.5" stroke-miterlimit="10" stroke-linecap="round" stroke-linejoin="round"/>
<path d="M167.304 18.9896V13.3652H162.296V18.9937L155.391 33.3643C154.676 34.8525 155.767 36.5693 157.421 36.5693H172.175C173.829 36.5693 174.92 34.8483 174.205 33.3643L167.304 18.9896Z" fill="white" stroke="#FF95FB" stroke-width="1.5" stroke-miterlimit="10" stroke-linecap="round" stroke-linejoin="round"/>
<path d="M170.485 29.4648H159.118L156.9 34.0832C156.779 34.3326 156.867 34.5405 156.934 34.6402C156.996 34.74 157.147 34.9104 157.422 34.9104H172.177C172.456 34.9104 172.603 34.74 172.665 34.6402C172.728 34.5405 172.82 34.3326 172.699 34.0832L170.485 29.4648Z" fill="#FF95FB"/>
<path d="M129.313 17.917L111.321 17.9378L111.246 34.0459C111.238 35.4427 112.374 36.5734 113.778 36.5734H125.549C126.949 36.5734 128.081 35.4427 128.081 34.0501L128.056 20.2989L129.313 17.917Z" fill="white" stroke="#FF95FB" stroke-width="1.5" stroke-miterlimit="10" stroke-linecap="round" stroke-linejoin="round"/>
<path d="M112.948 26.0977L112.91 34.0499C112.91 34.3575 113.065 34.5612 113.161 34.6568C113.253 34.7524 113.457 34.9104 113.771 34.9104H125.538C125.768 34.9104 125.985 34.8231 126.148 34.661C126.311 34.4988 126.399 34.2827 126.399 34.054L126.386 26.1018H112.948V26.0977Z" fill="#FF95FB"/>
<path d="M129.311 17.9173H110.496V15.71H130.476L129.311 17.9173Z" fill="white" stroke="#FF95FB" stroke-width="1.5" stroke-miterlimit="10" stroke-linecap="round" stroke-linejoin="round"/>
<path d="M20.8501 59.8555C20.8585 55.3826 20.8125 50.0284 21.1927 45.6221H9.36258C7.78774 50.5688 5.94556 58.9326 4.47097 63.9168C2.52435 70.4889 2.94208 80.6901 7.59141 82.5607C10.0769 83.7662 18.185 81.0767 25.2488 78.6282C30.224 76.9031 45.6131 69.5827 45.6131 69.5827V48.9352C40.7717 51.4917 30.9132 54.9419 20.8501 59.8555Z" fill="#FFC4B0"/>
<path d="M32.7332 76.3672C37.2948 74.4176 47.5417 69.5955 47.5417 69.5955V47.4307C39.5548 49.4385 33.6898 53.2629 21.559 58.6253V56.0064C21.559 56.0064 19.7794 57.9852 14.2236 58.139C8.66367 58.2928 5.77716 56.0064 5.77716 56.0064C4.21902 62.4206 2.38937 69.5415 2.53558 74.4176C2.68178 79.2937 4.06864 81.58 7.1306 82.8395C10.1926 84.0991 14.5328 83.1347 20.193 81.2433C26.484 79.144 28.8275 78.0341 32.7332 76.3672Z" fill="white" stroke="#1E272A" stroke-miterlimit="10" stroke-linecap="round" stroke-linejoin="round"/>
<path d="M21.5571 58.6221C21.5571 64.1092 21.4026 71.9035 17.7266 75.7528L21.5571 58.6221Z" fill="white"/>
<path d="M21.5571 58.6221C21.5571 64.1092 21.4026 71.9035 17.7266 75.7528" stroke="#1E272A" stroke-miterlimit="10" stroke-linecap="round" stroke-linejoin="round"/>
<path d="M29.7484 28.006C28.6456 27.3367 27.1459 26.601 25.6922 26.285C23.8166 25.8777 21.1933 25.9733 21.1933 25.9733C22.0538 24.8758 24.5978 23.7909 26.3606 22.9636C28.5662 21.9244 28.9798 20.7895 28.5579 19.9706C28.1276 19.1309 27.1209 19.4676 24.7565 20.2325C22.7974 20.8644 20.4915 21.7831 18.7579 22.735C17.0244 23.6828 15.9842 24.1151 15.4621 25.6698C14.1629 26.0148 13.3024 26.8753 13.4778 28.8582C11.832 29.5482 11.9489 31.0489 12.0074 31.9094C11.2263 32.429 10.7125 32.8572 10.6289 34.5948C10.5496 36.2243 10.3658 38.3817 10.1276 40.6099C9.8603 43.0708 8.55281 46.9492 7.85938 49.6388C10.7083 53.2179 19.8273 51.684 21.3646 50.3745C21.3646 50.3745 21.3604 48.4166 21.4523 46.8993C21.586 44.7543 22.3671 43.129 23.2068 41.1918C24.8693 37.3508 25.7716 35.3763 25.6254 31.8886C26.7324 32.0632 27.8519 32.3251 28.2989 32.1131C29.2262 31.6724 29.2889 30.9616 28.6665 30.3505C29.7526 30.733 30.6215 30.3006 30.8178 29.9099C31.1311 29.2822 30.8846 28.6961 29.7484 28.006Z" fill="#1A9882"/>
<path d="M21.1948 25.9727C19.6827 26.0433 18.3125 26.2844 18.3125 26.2844" stroke="#1E272A" stroke-miterlimit="10" stroke-linecap="round" stroke-linejoin="round"/>
<path d="M18.6622 35.3009C18.775 36.9304 18.4659 38.4726 17.6137 39.8735C16.9787 40.9211 16.0932 41.7857 15.4331 42.8125C15.2159 43.1533 15.759 43.4651 15.9762 43.1284C16.7197 41.9728 17.7265 41.0125 18.3823 39.7945C19.13 38.3978 19.4016 36.8722 19.293 35.3009C19.2637 34.9018 18.6371 34.8976 18.6622 35.3009Z" fill="#1E272A"/>
<path d="M25.6254 31.8839C25.7716 35.3716 24.8693 37.3461 23.2068 41.1871C22.3671 43.1243 21.586 44.7538 21.4523 46.8946C21.3562 48.4119 21.3646 50.3698 21.3646 50.3698C19.8231 51.6793 10.7083 53.2132 7.85938 49.634C8.55281 46.9445 9.8603 43.0661 10.1276 40.6052C10.3699 38.3729 10.5537 36.2154 10.6289 34.5901C10.7125 32.8525 11.2263 32.4243 12.0074 31.9047C11.9489 31.0442 11.832 29.5435 13.4778 28.8535C13.3024 26.8665 14.1629 26.0101 15.462 25.6651C15.9842 24.1104 17.0244 23.6822 18.7579 22.7303C20.4915 21.7825 22.7974 20.8638 24.7565 20.2278C27.1209 19.4629 28.1234 19.1304 28.5579 19.9659C28.9798 20.7807 28.5662 21.9197 26.3606 22.9589C24.5978 23.7862 22.0538 24.8711 21.1933 25.9686C21.1933 25.9686 23.8166 25.8729 25.6922 26.2803C27.1459 26.5963 28.6456 27.332 29.7484 28.0013C30.8804 28.6914 31.1311 29.2775 30.8178 29.901C30.6215 30.2959 29.7526 30.7241 28.6665 30.3417C29.2889 30.9527 29.2221 31.6677 28.2989 32.1042C27.6806 32.3952 25.7716 31.78 24.4015 31.7467C23.0313 31.7135 18.6159 32.1375 18.6159 32.1375C18.6159 32.1375 21.4022 32.7236 22.3128 33.185C23.0397 33.555 23.6078 34.0788 24.1299 34.6108C24.6897 35.1803 25.2327 35.808 24.9905 36.2237C24.6229 36.8473 23.6161 36.9969 22.4131 36.2528C21.352 35.5919 20.88 35.1845 19.6059 35.1221C18.3319 35.0598 15.1153 35.2178 15.1153 35.2178" stroke="#1E272A" stroke-miterlimit="10" stroke-linecap="round" stroke-linejoin="round"/>
<path d="M18.6622 35.3009C18.775 36.9304 18.4659 38.4726 17.6137 39.8735C16.9787 40.9211 16.0932 41.7857 15.4331 42.8125C15.2159 43.1533 15.759 43.4651 15.9762 43.1284C16.7197 41.9728 17.7265 41.0125 18.3823 39.7945C19.13 38.3978 19.4016 36.8722 19.293 35.3009C19.2637 34.9018 18.6371 34.8976 18.6622 35.3009Z" fill="#1E272A"/>
<path d="M26.3267 38.925C24.944 38.925 23.8203 37.8109 23.8203 36.4308V16.9805H28.8289V36.4308C28.8331 37.8109 27.7094 38.925 26.3267 38.925Z" fill="white" stroke="#1E272A" stroke-miterlimit="10" stroke-linecap="round" stroke-linejoin="round"/>
<path d="M29.5641 14.7773H23.0977V16.9805H29.5641V14.7773Z" fill="white" stroke="#1E272A" stroke-miterlimit="10" stroke-linecap="round" stroke-linejoin="round"/>
<path d="M26.3277 37.3334C25.7346 37.3334 25.25 36.8554 25.25 36.261V24.8252H27.4013V36.261C27.4055 36.8512 26.9209 37.3334 26.3277 37.3334Z" fill="#F55571"/>
<path d="M29.7274 28.006C28.6245 27.3367 27.1249 26.601 25.6712 26.285C23.8624 25.8943 21.3644 25.9649 21.189 25.9733C22.0495 24.8758 24.5935 23.7909 26.3521 22.9636C28.5577 21.9244 28.9713 20.7896 28.5494 19.9706C28.1191 19.1309 27.1124 19.4676 24.748 20.2325C22.7889 20.8644 20.483 21.7831 18.7494 22.735C17.0158 23.6828 15.9757 24.1151 15.4535 25.6698L15.0859 35.2266C15.0859 35.2266 18.3025 35.0687 19.5765 35.131C20.8506 35.1934 21.3185 35.6007 22.3837 36.2617C23.5826 37.0058 24.5893 36.8603 24.9611 36.2326C25.2075 35.8169 24.6603 35.1892 24.1005 34.6197C23.5784 34.0876 23.0103 33.5638 22.2834 33.1939C21.3769 32.7325 18.5865 32.1463 18.5865 32.1463C18.5865 32.1463 23.0019 31.7265 24.3721 31.7556C25.7422 31.7888 27.6512 32.4041 28.2695 32.1131C29.1968 31.6724 29.2595 30.9616 28.6371 30.3505C29.7232 30.733 30.592 30.3006 30.7884 29.9099C31.11 29.2822 30.8636 28.6961 29.7274 28.006Z" fill="#1A9882"/>
<path d="M15.4611 25.6651C15.9832 24.1104 17.0234 23.6822 18.757 22.7303C20.4905 21.7825 22.7964 20.8638 24.7556 20.2278C27.1199 19.4629 28.1225 19.1304 28.5569 19.9659C28.9788 20.7807 28.5653 21.9197 26.3596 22.9589C24.5968 23.7862 22.0528 24.8711 21.1923 25.9686H21.1756C21.1756 25.9686 23.799 25.8729 25.6746 26.2803C27.1283 26.5963 28.6279 27.332 29.7307 28.0013C30.8628 28.6914 31.1134 29.2775 30.8001 29.901C30.6038 30.2959 29.7349 30.7241 28.6488 30.3417C29.2712 30.9527 29.2044 31.6677 28.2812 32.1042C27.663 32.3952 25.7539 31.78 24.3838 31.7467C23.0136 31.7135 18.5982 32.1375 18.5982 32.1375C18.5982 32.1375 21.3845 32.7236 22.2951 33.185C23.022 33.555 23.5901 34.0788 24.1123 34.6108C24.672 35.1803 25.2151 35.808 24.9728 36.2237C24.6052 36.8473 23.5984 36.9969 22.3954 36.2528C21.3344 35.5919 20.8623 35.1845 19.5882 35.1221C18.3142 35.0598 15.0977 35.2178 15.0977 35.2178" stroke="#1E272A" stroke-miterlimit="10" stroke-linecap="round" stroke-linejoin="round"/>
<path d="M28.6637 30.3496C28.0037 29.8591 26.5124 29.1607 25.2216 28.903C23.4964 28.558 18.8387 28.9071 17.3516 29.169" stroke="#1E272A" stroke-miterlimit="10" stroke-linecap="round" stroke-linejoin="round"/>
<path d="M21.1948 25.9727C19.6827 26.0433 18.3125 26.2844 18.3125 26.2844" stroke="#1E272A" stroke-miterlimit="10" stroke-linecap="round" stroke-linejoin="round"/>
<path d="M85.9694 18.5398C85.7605 25.9308 79.1479 33.8207 71.3698 33.6045C63.5916 33.3884 57.5972 25.1452 57.8061 17.7541C58.0149 10.3631 64.4897 4.54749 72.2679 4.76365C80.0418 4.97981 86.1783 11.1487 85.9694 18.5398Z" fill="#1E272A"/>
<path d="M79.5312 2.31543C79.9908 2.78516 80.2873 3.38792 80.4795 4.01146C80.8972 5.37078 80.797 6.92133 80.02 8.11437" stroke="#1E272A" stroke-miterlimit="10" stroke-linecap="round" stroke-linejoin="round"/>
<path d="M84.7548 7.81132C84.124 7.62842 83.4473 7.6492 82.804 7.77807C81.4046 8.05243 80.0762 8.87134 79.3828 10.1101" stroke="#1E272A" stroke-miterlimit="10" stroke-linecap="round" stroke-linejoin="round"/>
<path d="M72.7638 14.25C75.4247 12.3794 77.977 10.2386 80.2202 7.88157C81.0807 6.97951 79.4349 4.70982 78.8375 4.14447C76.8533 2.25306 73.4488 2.54405 70.9299 2.68539C69.8522 2.74774 68.7327 2.83504 67.7218 2.4526C66.7109 2.07016 65.8462 1.06002 66.0258 0C64.9313 0.573659 64.075 1.5838 63.6949 2.75606C62.2495 1.12653 59.6805 1.1099 58.2644 2.84751C57.3746 3.94078 57.22 5.57031 57.8842 6.81323C57.4999 6.87559 57.1407 7.03771 56.819 7.25803C55.3862 8.23075 54.8766 10.2302 55.3904 11.8806C55.9042 13.5309 57.2869 14.8154 58.8659 15.5303C60.4449 16.2495 62.2077 16.4573 63.9455 16.4906C65.7292 16.5239 67.5129 16.3784 69.2674 16.0624C70.7169 15.8006 71.5983 15.0689 72.7638 14.25Z" fill="#1E272A"/>
<path d="M63.5212 38.8596C61.2989 38.7391 58.7758 37.6749 57.5811 36.2075C55.9185 34.1623 55.5008 31.3148 55.6971 28.6917C55.8517 26.6631 56.4365 24.7094 56.8208 22.7182C57.0088 21.7372 57.155 20.7478 57.1592 19.746C57.1675 18.8023 57.013 17.9128 57.084 16.9691C57.3931 12.9203 59.6864 10.2972 59.6864 10.2972C62.1343 7.07145 61.2947 11.1286 66.675 11.4487C71.0278 11.7064 74.0146 10.2723 76.3371 9.89401C78.2963 11.6898 79.4492 13.7184 79.7583 15.3937C78.6012 17.3848 77.3773 19.509 77.3564 22.448C77.3104 24.4766 77.7574 24.568 78.5845 23.6618C79.6915 22.4896 81.3206 21.521 82.979 21.5917C85.1429 21.6831 86.5381 23.0009 86.7553 24.5722C87.0143 26.4345 85.711 27.7273 84.1779 28.2802C82.6448 28.8331 80.6565 28.7458 79.3114 27.7897C79.3114 27.7897 79.186 29.652 79.0774 31.2524C78.9688 32.8528 78.313 34.3119 77.1392 35.3844L77.1935 44.7791L81.2455 47.1818C81.5212 48.4996 72.2935 58.418 61.9004 58.0855C54.9327 57.8652 58.1826 44.9745 58.1826 44.9745L62.8821 43.0207L63.5212 38.8596Z" fill="#FFC4B0"/>
<path d="M69.7677 28.2832C68.1552 30.0083 65.1476 30.37 63.5352 29.8628" stroke="#1E272A" stroke-miterlimit="10" stroke-linecap="round" stroke-linejoin="round"/>
<path d="M84.4604 24.3925C84.0928 24.089 83.1488 23.8022 82.1629 23.9851C81.1729 24.1638 80.3124 24.8539 79.9531 25.7476" stroke="#1E272A" stroke-miterlimit="10" stroke-linecap="round" stroke-linejoin="round"/>
<path d="M82.7256 25.3076C82.454 25.0873 81.4849 24.5011 80.4531 24.9501" stroke="#1E272A" stroke-miterlimit="10" stroke-linecap="round" stroke-linejoin="round"/>
<path d="M63.5211 38.8589C67.7987 39.1332 70.7144 38.0857 73.0537 36.7139C72.4104 38.1771 69.7453 40.4385 63.1953 41.2699L63.5211 38.8589Z" fill="#1E272A"/>
<path d="M66.017 17.1885C65.4155 20.0277 64.1832 21.7694 63.4313 23.1745C62.8548 24.2511 62.7086 26.155 65.4698 26.4044" stroke="#1E272A" stroke-miterlimit="10" stroke-linecap="round" stroke-linejoin="round"/>
<path d="M62.8956 20.9255C62.6951 19.9943 61.8513 19.4498 60.8738 19.2752C59.8963 19.1006 58.4593 19.1921 58.0625 20.5389C58.2881 21.9564 61.3751 22.6797 62.8956 20.9255Z" fill="white"/>
<path d="M58.7415 21.2036C58.9754 21.8313 59.7064 22.1431 60.3665 21.902C61.0265 21.6609 61.3732 20.9584 61.1351 20.3307C60.897 19.703 60.1701 19.3912 59.5101 19.6323C58.8501 19.8734 58.5076 20.5759 58.7415 21.2036Z" fill="#1E272A"/>
<path d="M61.2283 20.3066L59.9375 20.7681L61.3327 20.9967L61.2283 20.3066Z" fill="white"/>
<path d="M57.9336 20.264C58.6479 19.3204 59.8008 19.1915 60.7783 19.3703C61.7558 19.5449 62.6999 20.264 62.9004 20.925" stroke="#1E272A" stroke-miterlimit="10" stroke-linecap="round" stroke-linejoin="round"/>
<path d="M62.2637 15.2889C60.5969 14.9148 58.0446 15.3097 56.9961 16.4695" stroke="#1E272A" stroke-miterlimit="10" stroke-linecap="round" stroke-linejoin="round"/>
<path d="M73.1886 21.4538C72.9881 20.5227 72.1443 19.9781 71.1668 19.8035C70.1893 19.6289 68.7523 19.7204 68.3555 21.0672C68.581 22.4806 71.6639 23.2081 73.1886 21.4538Z" fill="white"/>
<path d="M69.0306 21.7319C69.2645 22.3596 69.9955 22.6714 70.6555 22.4303C71.3155 22.1892 71.6622 21.4867 71.4241 20.859C71.186 20.2313 70.4592 19.9195 69.7992 20.1606C69.1392 20.4017 68.7966 21.1042 69.0306 21.7319Z" fill="#1E272A"/>
<path d="M71.5171 20.8301L70.2305 21.2957L71.6215 21.5201L71.5171 20.8301Z" fill="white"/>
<path d="M68.2227 20.7924C68.937 19.8487 70.0899 19.7199 71.0674 19.8986C72.0449 20.0732 72.9889 20.7924 73.1895 21.4533" stroke="#1E272A" stroke-miterlimit="10" stroke-linecap="round" stroke-linejoin="round"/>
<path d="M75.1038 17.0308C73.8256 15.738 71.3025 15.0771 69.4102 15.5884" stroke="#1E272A" stroke-miterlimit="10" stroke-linecap="round" stroke-linejoin="round"/>
<path d="M93.4755 104.46H43.9453V143.149H96.1865C96.1865 125.665 95.4722 117.068 93.4755 104.46Z" fill="#1E272A"/>
<path d="M60.973 43.8184L52.0461 46.67C52.0461 46.67 45.2246 50.4944 44.4309 64.2497C43.7792 75.5317 43.4492 99.4716 43.4492 108.072C49.005 115.272 82.6155 116.519 94.5459 108.268C94.2535 90.2099 96.952 82.8438 98.5895 73.5239C100.419 63.1232 96.8517 55.4827 94.3537 52.8348L77.1934 44.7786L62.1134 56.8047C61.0607 53.0385 60.597 48.7818 60.973 43.8184Z" fill="#1A9882"/>
<path d="M98.0304 143.149H70.2305C70.2305 143.149 70.2305 89.3867 70.2305 73.5197C70.2305 59.12 77.1982 44.7786 77.1982 44.7786L77.1898 43.2363C77.1898 43.2363 91.3801 50.0454 94.8055 52.0491C94.8055 52.0491 100.01 56.5635 99.7806 67.4214C99.5551 78.2794 95.3903 82.9684 95.3903 97.5344C95.3945 107.673 98.0304 117.928 98.0304 143.149Z" fill="white" stroke="#1E272A" stroke-miterlimit="10" stroke-linecap="round" stroke-linejoin="round"/>
<path d="M62.8905 43.0244C59.2271 45.9592 54.9537 50.669 52.1674 59.2905C49.3812 67.9121 49.6276 82.9685 49.6276 91.4196C49.6276 99.8706 49.6276 143.153 49.6276 143.153H41.2188C41.2188 115.975 41.2188 82.7149 41.2188 72.2685C41.2188 61.818 42.9481 51.887 47.5515 47.4349L62.8905 43.0244Z" fill="white" stroke="#1E272A" stroke-miterlimit="10" stroke-linecap="round" stroke-linejoin="round"/>
<path d="M47.7218 90.1558C45.4327 82.507 44.3633 70.244 44.3633 70.244L48.2816 62.0382L46.1428 59.6563C48.5364 50.8934 53.8416 45.8053 53.8416 45.8053L63.3073 40.4512L62.8854 43.0285C54.8023 50.4777 51.0637 59.278 49.9525 73.528" fill="white"/>
<path d="M47.7218 90.1558C45.4327 82.507 44.3633 70.244 44.3633 70.244L48.2816 62.0382L46.1428 59.6563C48.5364 50.8934 53.8416 45.8053 53.8416 45.8053L63.3073 40.4512L62.8854 43.0285C54.8023 50.4777 51.0637 59.278 49.9525 73.528" stroke="#1E272A" stroke-miterlimit="10" stroke-linecap="round" stroke-linejoin="round"/>
<path d="M82.2113 45.6477L77.1777 40.7051L77.1986 44.7789C77.1986 44.7789 68.7981 61.627 70.2309 79.1402L70.352 94.3505L79.0157 76.2012L76.4258 63.1401L79.9222 60.3799L82.2113 45.6477Z" fill="white" stroke="#1E272A" stroke-miterlimit="10" stroke-linecap="round" stroke-linejoin="round"/>
<path d="M42.5872 78.779C41.7726 78.4589 41.0165 77.985 40.3398 77.4238C39.7633 76.9458 39.2412 76.4095 38.7566 75.84C38.3222 75.3287 37.9588 74.7551 37.4617 74.3103C37.2027 74.0816 36.8977 73.907 36.5928 73.7491C35.9704 73.4248 35.3229 73.138 34.6587 72.9011C33.6729 72.5477 32.545 72.2734 31.6761 71.6706C31.3252 71.4253 31.0328 71.0679 30.966 70.6438C30.895 70.1907 31.0036 69.667 31.3461 69.3344C31.8641 68.8314 32.6745 68.5155 33.3888 68.4947C33.9486 68.4781 34.5083 68.5986 35.0514 68.7358C35.6487 68.8896 36.2419 69.0684 36.8309 69.2471C37.5243 69.4591 38.2177 69.667 38.907 69.879C40.1769 70.2656 41.4593 70.6522 42.6373 71.2715C43.1971 71.5667 43.7318 71.9117 44.2289 72.2983C44.9223 72.8429 45.5573 73.483 45.9792 74.2521C46.4011 75.0253 46.6058 75.9356 46.4178 76.7961C46.1922 77.852 44.9683 79.3568 43.7443 79.1199C43.3433 79.0409 42.959 78.9245 42.5872 78.779Z" fill="#1E272A"/>
<path d="M32.729 81.6682C31.3463 81.6682 30.2227 80.5541 30.2227 79.174V59.7236H35.2312V79.174C35.2354 80.5541 34.1117 81.6682 32.729 81.6682Z" fill="white" stroke="#1E272A" stroke-miterlimit="10" stroke-linecap="round" stroke-linejoin="round"/>
<path d="M35.9625 57.5205H29.4961V59.7237H35.9625V57.5205Z" fill="white" stroke="#1E272A" stroke-miterlimit="10" stroke-linecap="round" stroke-linejoin="round"/>
<path d="M32.734 80.0763C32.1408 80.0763 31.6562 79.5983 31.6562 79.0038V66.3584H33.8076V79.0038C33.8117 79.5983 33.3272 80.0763 32.734 80.0763Z" fill="#F55571"/>
<path d="M94.8027 52.0498C87.5592 57.6035 81.5941 68.3658 81.5941 68.3658L73.0223 82.4662C73.0223 82.4662 65.5742 78.7499 59.3291 75.2248L54.1367 85.8416C58.1845 89.533 63.9534 94.9578 70.1441 99.3018C78.7452 105.342 83.4112 103.933 86.611 97.1818C88.8417 92.4678 100.805 74.7135 100.881 68.5155C100.952 62.3216 101.758 58.2977 94.8027 52.0498Z" fill="#FFC4B0"/>
<path d="M51.3435 70.0366C49.5974 68.2367 45.8879 63.9342 44.5428 62.9324C43.0139 61.7976 37.4832 61.0202 36.1757 61.2405C35.1648 61.411 34.3126 61.386 32.0653 62.2881C31.2465 62.6165 30.1604 63.3897 29.4628 63.9301C28.7652 64.4705 28.1971 65.2104 28.0216 66.0709C27.9631 66.3577 28.0342 66.7568 28.3266 66.7776C27.4535 67.4552 26.806 69.0722 27.7501 69.8163C28.1386 70.1239 28.6273 70.1322 28.9281 70.0117C28.5814 70.7308 28.7819 71.3627 29.1119 71.7327C29.5505 72.2315 30.3359 72.2273 30.975 72.0403C32.2323 71.6745 33.2641 70.7599 34.5382 70.4565C35.8666 70.1405 37.124 69.8787 38.4983 70.1489C37.5793 70.3733 36.6853 70.6976 36.2049 70.9054C34.9685 71.4417 33.9868 71.8366 32.6125 73.7155C32.4913 73.8818 32.1572 74.4804 32.2866 74.8213C32.5331 75.4698 33.0803 75.5737 33.4939 75.6069C34.0536 75.6527 34.4421 75.3284 34.793 75.1123C36.0462 74.3432 37.0362 73.9358 38.0597 73.7737C38.8993 73.6407 39.6846 73.7903 40.5284 74.8545C41.0214 75.4739 41.2595 76.6545 41.6647 77.3237C42.3748 78.4918 43.0933 79.265 44.3005 79.9509C46.4519 81.1731 47.5379 80.3833 50.295 82.5033C51.2683 83.2516 52.5758 84.4196 54.1381 85.8455C58.4992 83.6423 60.3706 80.1754 59.3304 75.2286C55.692 73.1751 52.4588 71.1881 51.3435 70.0366Z" fill="#1A9882" stroke="#1E272A" stroke-miterlimit="10" stroke-linecap="round" stroke-linejoin="round"/>
<path d="M38.4497 66.1416C36.0729 66.1707 34.3309 66.3203 32.2089 67.3804C31.2982 67.8335 30.1829 68.4321 28.9297 70.0076" stroke="#1E272A" stroke-miterlimit="10" stroke-linecap="round" stroke-linejoin="round"/>
<path d="M37.297 63.1406C33.5375 63.1697 30.935 64.7327 28.3242 66.7738" stroke="#1E272A" stroke-miterlimit="10" stroke-linecap="round" stroke-linejoin="round"/>
<path d="M94.8013 52.0498C104.806 57.5993 105.278 65.3396 102.98 72.1694C100.131 80.633 87.9839 97.8885 86.7892 99.3725C80.9326 106.639 75.711 104.693 71.7927 102.237C69.0649 100.528 63.5509 96.101 60.1172 93.1911C64.1733 90.3893 67.5235 84.4158 67.369 79.1406C68.9229 79.9762 72.6741 82.1419 72.6741 82.1419L80.4731 68.6111C80.4731 68.6152 86.3589 57.221 94.8013 52.0498Z" fill="white" stroke="#1E272A" stroke-miterlimit="10" stroke-linecap="round" stroke-linejoin="round"/>
<path d="M72.6719 82.1455C77.9562 85.5417 78.8584 91.1495 79.0088 93.8639" stroke="#1E272A" stroke-miterlimit="10" stroke-linecap="round" stroke-linejoin="round"/>
<path d="M178.484 91.4849L173.262 93.2979L174.031 95.4919L179.253 93.679L178.484 91.4849Z" fill="#1E272A" stroke="#1E272A" stroke-miterlimit="10" stroke-linecap="round" stroke-linejoin="round"/>
<path d="M178.799 93.837L174.504 95.3281L176.624 101.377L180.92 99.8854L178.799 93.837Z" fill="white" stroke="#1E272A" stroke-miterlimit="10" stroke-linecap="round" stroke-linejoin="round"/>
<path d="M180.212 100.128L177.309 101.136L177.782 102.486L180.685 101.478L180.212 100.128Z" fill="white" stroke="#1E272A" stroke-miterlimit="10" stroke-linecap="round" stroke-linejoin="round"/>
<path d="M180.096 97.5586L175.801 99.0498L176.157 100.066L180.452 98.5752L180.096 97.5586Z" fill="#F55571" stroke="#F55571" stroke-width="1.5" stroke-miterlimit="10" stroke-linecap="round" stroke-linejoin="round"/>
<path d="M160.815 73.5013L157.73 78.8184L170.019 85.8789L173.104 80.5619L160.815 73.5013Z" fill="#1E272A" stroke="#1E272A" stroke-miterlimit="10" stroke-linecap="round" stroke-linejoin="round"/>
<path d="M155.334 71.9217L153.617 74.8809L160.566 78.8736L162.283 75.9145L155.334 71.9217Z" fill="#1E272A" stroke="#1E272A" stroke-miterlimit="10" stroke-linecap="round" stroke-linejoin="round"/>
<path d="M188.405 86.6102L182.942 96.0298L162.41 84.2324L166.195 77.7143C167.122 76.1139 169.182 75.5651 170.79 76.488L188.405 86.6102Z" fill="white" stroke="#1E272A" stroke-miterlimit="10" stroke-linecap="round" stroke-linejoin="round"/>
<path d="M182.935 110.504H178.703V125.207H182.935V110.504Z" fill="#1E272A" stroke="#1E272A" stroke-miterlimit="10" stroke-linecap="round" stroke-linejoin="round"/>
<path d="M193.866 83.4639H182.934V126.796H160.715L158.188 139.354H193.866V83.4639Z" fill="white" stroke="#1E272A" stroke-miterlimit="10" stroke-linecap="round" stroke-linejoin="round"/>
<path d="M190.958 83.2637L189.104 125.49C188.786 129.93 185.073 133.371 180.599 133.371H156.32V141.249H193.857V83.2637H190.958Z" fill="white" stroke="#1E272A" stroke-miterlimit="10" stroke-linecap="round" stroke-linejoin="round"/>
<path d="M184.406 128.883C186.447 126.852 186.447 123.56 184.406 121.529C182.365 119.498 179.056 119.498 177.015 121.529C174.975 123.56 174.975 126.852 177.015 128.883C179.056 130.914 182.365 130.914 184.406 128.883Z" fill="#FF95FB" stroke="#1E272A" stroke-miterlimit="10" stroke-linecap="round" stroke-linejoin="round"/>
<path d="M180.711 128.266C182.409 128.266 183.786 126.897 183.786 125.207C183.786 123.517 182.409 122.147 180.711 122.147C179.013 122.147 177.637 123.517 177.637 125.207C177.637 126.897 179.013 128.266 180.711 128.266Z" fill="#1E272A" stroke="#1E272A" stroke-miterlimit="10" stroke-linecap="round" stroke-linejoin="round"/>
<path d="M173.001 125.22H166.142C165.703 125.22 165.344 125.573 165.344 126.014C165.344 126.45 165.699 126.808 166.142 126.808H173.001C173.439 126.808 173.799 126.454 173.799 126.014C173.799 125.577 173.444 125.22 173.001 125.22Z" fill="#1E272A" stroke="#1E272A" stroke-miterlimit="10" stroke-linecap="round" stroke-linejoin="round"/>
<path d="M173.001 123.632H166.142C165.703 123.632 165.344 123.985 165.344 124.426C165.344 124.862 165.699 125.22 166.142 125.22H173.001C173.439 125.22 173.799 124.866 173.799 124.426C173.799 123.989 173.444 123.632 173.001 123.632Z" fill="#1E272A" stroke="#1E272A" stroke-miterlimit="10" stroke-linecap="round" stroke-linejoin="round"/>
<path d="M173.001 122.048H166.142C165.703 122.048 165.344 122.401 165.344 122.842C165.344 123.278 165.699 123.636 166.142 123.636H173.001C173.439 123.636 173.799 123.282 173.799 122.842C173.799 122.401 173.444 122.048 173.001 122.048Z" fill="#1E272A" stroke="#1E272A" stroke-miterlimit="10" stroke-linecap="round" stroke-linejoin="round"/>
<path d="M173.001 120.46H166.142C165.703 120.46 165.344 120.813 165.344 121.254C165.344 121.69 165.699 122.048 166.142 122.048H173.001C173.439 122.048 173.799 121.695 173.799 121.254C173.799 120.813 173.444 120.46 173.001 120.46Z" fill="#1E272A" stroke="#1E272A" stroke-miterlimit="10" stroke-linecap="round" stroke-linejoin="round"/>
<path d="M182.935 109.631H161.117V110.504H182.935V109.631Z" fill="#1E272A" stroke="#1E272A" stroke-miterlimit="10" stroke-linecap="round" stroke-linejoin="round"/>
<path d="M178.698 110.504H163.367V113.875H178.698V110.504Z" fill="#1E272A" stroke="#1E272A" stroke-miterlimit="10" stroke-linecap="round" stroke-linejoin="round"/>
<path d="M165.422 85.9697V91.2116H174.553L165.422 85.9697Z" fill="white" stroke="#1E272A" stroke-miterlimit="10" stroke-linecap="round" stroke-linejoin="round"/>
<path d="M174.555 91.2119H163.172V93.2987H178.185L174.555 91.2119Z" fill="#1E272A" stroke="#1E272A" stroke-miterlimit="10" stroke-linecap="round" stroke-linejoin="round"/>
<path d="M172.14 93.2988H166.609V95.6226H172.14V93.2988Z" fill="#1E272A" stroke="#1E272A" stroke-miterlimit="10" stroke-linecap="round" stroke-linejoin="round"/>
<path d="M171.651 95.6221H167.102V102.028H171.651V95.6221Z" fill="white" stroke="#1E272A" stroke-miterlimit="10" stroke-linecap="round" stroke-linejoin="round"/>
<path d="M170.91 102.028H167.836V103.458H170.91V102.028Z" fill="white" stroke="#1E272A" stroke-miterlimit="10" stroke-linecap="round" stroke-linejoin="round"/>
<path d="M171.651 99.5635H167.102V100.64H171.651V99.5635Z" fill="#1A9882" stroke="#1A9882" stroke-width="1.5" stroke-miterlimit="10" stroke-linecap="round" stroke-linejoin="round"/>
<path d="M152.662 69.749C150.569 78.2832 141.713 83.4628 132.887 81.3178C124.056 79.1728 118.596 70.518 120.689 61.9838C122.782 53.4496 131.638 48.2701 140.464 50.4151C152.182 53.2626 159.162 61.8092 152.662 69.749Z" fill="#1E272A"/>
<path d="M133.92 84.1201C140.019 87.9819 145.951 89.0129 150.149 76.9702C150.462 76.0723 150.237 74.5051 150.717 72.4557C150.993 71.2835 151.841 70.5727 152.058 69.1551C152.513 66.212 152.196 61.7849 146.356 59.1826C142.906 68.3778 134.142 68.648 134.142 68.648C134 70.1653 133.235 74.1102 133.235 74.1102C130.817 76.5545 128.009 77.3817 124.141 76.0141L117.75 85.4005C117.75 85.4005 126.46 93.0493 134.167 93.7352L131.823 89.4244L133.92 84.1201Z" fill="#FFC4B0"/>
<path d="M136.121 68.1196C135.661 66.7229 134.229 65.3594 132.031 65.3594C130.047 65.3594 128.439 66.7727 128.046 68.5976C127.658 70.4018 128.531 72.0895 129.838 73.1204C131.434 74.3841 133.059 74.2719 134.379 73.877" fill="#FFC4B0"/>
<path d="M136.121 68.1196C135.661 66.7229 134.229 65.3594 132.031 65.3594C130.047 65.3594 128.439 66.7727 128.046 68.5976C127.658 70.4018 128.531 72.0895 129.838 73.1204C131.434 74.3841 133.059 74.2719 134.379 73.877" stroke="#1E272A" stroke-miterlimit="10" stroke-linecap="round" stroke-linejoin="round"/>
<path d="M130.773 69.1714C131.337 68.4356 132.164 68.1654 132.891 68.4772C133.618 68.789 134.22 69.6744 134.429 70.7427" stroke="#1E272A" stroke-miterlimit="10" stroke-linecap="round" stroke-linejoin="round"/>
<path d="M132.164 70.2894C132.394 69.9443 132.715 69.749 133.041 69.6575C133.367 69.5702 133.71 69.6035 134.027 69.6658" stroke="#1E272A" stroke-miterlimit="10" stroke-linecap="round" stroke-linejoin="round"/>
<path d="M144.422 70.0691C144.422 70.0691 144.923 69.8945 146.147 69.9194C147.225 69.9444 148.135 70.1772 148.415 70.622C148.511 70.9753 148.09 72.1933 147.484 72.4718C146.531 72.6422 144.915 71.5905 144.422 70.0691Z" fill="white"/>
<path d="M148.092 72.1975C147.62 72.7171 146.943 72.7545 146.584 72.2806C146.225 71.8068 146.312 71.0045 146.788 70.4848C147.261 69.9652 147.937 69.9278 148.296 70.4017C148.656 70.8756 148.564 71.682 148.092 72.1975Z" fill="#1E272A"/>
<path d="M146.51 70.6719L147.438 71.3411L146.289 71.3453L146.51 70.6719Z" fill="white"/>
<path d="M148.411 70.6266C147.764 69.8825 145.679 69.9448 144.422 70.0695" stroke="#1E272A" stroke-miterlimit="10" stroke-linecap="round" stroke-linejoin="round"/>
<path d="M149.005 70.718C148.7 70.7762 148.412 70.6307 148.02 70.4062" stroke="#1E272A" stroke-miterlimit="10" stroke-linecap="round" stroke-linejoin="round"/>
<path d="M148.926 78.7823C150.43 79.0151 152.715 78.3707 152.293 76.6789C151.896 75.0992 151.01 71.4411 151.144 69.9238" fill="#FFC4B0"/>
<path d="M148.926 78.7823C150.43 79.0151 152.715 78.3707 152.293 76.6789C151.896 75.0992 151.01 71.4411 151.144 69.9238" stroke="#1E272A" stroke-miterlimit="10" stroke-linecap="round" stroke-linejoin="round"/>
<path d="M150.635 67.3998C149.946 66.0862 148.413 65.5001 145.84 65.8659" stroke="#1E272A" stroke-miterlimit="10" stroke-linecap="round" stroke-linejoin="round"/>
<path d="M146.692 80.6653C145.255 80.4076 143.96 79.6177 143.316 78.4912" stroke="#1E272A" stroke-miterlimit="10" stroke-linecap="round" stroke-linejoin="round"/>
<path d="M134.707 82.6025L133.922 84.124C136.412 85.7826 138.383 86.668 140.865 86.7429C137.498 85.5664 134.707 82.6025 134.707 82.6025Z" fill="#1E272A"/>
<path d="M146.573 58.3047C147.041 59.7471 145.955 64.856 142.801 67.3502C140.629 69.067 138.16 69.1668 136.234 67.6537" stroke="#1E272A" stroke-miterlimit="10" stroke-linecap="round" stroke-linejoin="round"/>
<path d="M115.21 57.3284C114.534 58.0974 114.162 59.2281 114.149 60.1801C114.149 60.2632 114.149 60.3505 114.095 60.4128C114.053 60.4669 113.982 60.4918 113.915 60.5126C113 60.8576 112.47 61.822 112.224 62.7657C111.898 64.0128 111.931 65.3388 112.265 66.5817C112.579 67.7499 113.193 68.8847 114.204 69.5581C115.21 70.2315 116.66 70.323 117.604 69.5581C117.909 70.5475 119.012 71.1669 120.048 71.0962C121.088 71.0297 122.023 70.377 122.633 69.5415C123.243 68.7059 123.569 67.6917 123.795 66.6815C124.212 64.8109 124.308 62.828 123.728 60.999C123.222 59.4027 122.12 57.8522 120.578 57.0998C119.078 56.3681 117.487 55.8194 115.908 56.7339C115.653 56.8919 115.419 57.0956 115.21 57.3284Z" fill="#1E272A"/>
<path d="M119.827 57.5896C119.889 56.9702 119.547 56.3592 119.05 55.9809C118.557 55.6026 117.93 55.428 117.312 55.349C116.865 55.295 116.401 55.2867 115.975 55.4239C115.503 55.5777 115.102 55.8978 114.772 56.2594C113.118 58.0801 113.239 60.408 114.626 62.3493C114.342 62.3951 114.133 62.632 113.962 62.8606C113.13 63.9414 112.479 65.1885 112.266 66.5354C112.053 67.8822 112.316 69.333 113.155 70.4055C113.995 71.4821 115.449 72.1057 116.781 71.7939C117.149 71.7066 117.508 71.5528 117.796 71.3075C118.49 70.7214 118.682 69.7487 118.832 68.855" stroke="#1E272A" stroke-miterlimit="10" stroke-linecap="round" stroke-linejoin="round"/>
<path d="M109.141 65.7C109.679 65.0266 110.452 64.5402 111.296 64.3448C112.14 64.1536 113.046 64.2534 113.828 64.6275" stroke="#1E272A" stroke-miterlimit="10" stroke-linecap="round" stroke-linejoin="round"/>
<path d="M109.543 63.0599C110.909 62.8936 112.333 63.2719 113.432 64.0991" stroke="#1E272A" stroke-miterlimit="10" stroke-linecap="round" stroke-linejoin="round"/>
<path d="M149.944 71.9067C149.405 74.0974 147.679 75.5607 146.092 75.1741C144.501 74.7875 143.648 72.7007 144.183 70.51C144.722 68.3193 146.447 66.856 148.034 67.2426C149.626 67.6292 150.482 69.716 149.944 71.9067Z" stroke="#1E272A" stroke-miterlimit="10" stroke-linecap="round" stroke-linejoin="round"/>
<path d="M149.945 71.9895C150.422 71.7817 151.006 71.8399 151.428 72.1392" stroke="#1E272A" stroke-miterlimit="10" stroke-linecap="round" stroke-linejoin="round"/>
<path d="M144.279 70.0694L136.18 67.8496" stroke="#1E272A" stroke-miterlimit="10" stroke-linecap="round" stroke-linejoin="round"/>
<path d="M132.285 88.2852C139.599 91.9516 139.908 90.8251 143.877 94.4624C147.849 98.0997 150.239 104.996 150.239 131.098C150.239 141.253 150.239 143.153 150.239 143.153H128.316L134.177 93.7432L132.285 88.2852Z" fill="white" stroke="#1E272A" stroke-miterlimit="10" stroke-linecap="round" stroke-linejoin="round"/>
<path d="M132.279 88.285L131.828 89.4282L134.171 93.7389C130.896 92.4004 121.042 83.6625 119.805 82.0205L117.508 85.4126L147.409 122.763C144.301 107.482 139.756 95.2521 132.279 88.285Z" fill="#F55571" stroke="#1E272A" stroke-miterlimit="10" stroke-linecap="round" stroke-linejoin="round"/>
<path d="M117.004 84.6729C117.004 84.6729 112.973 88.3434 110.814 90.9415C108.658 93.5396 104.13 98.7607 105.458 106.642C106.824 114.723 109.097 126.342 109.339 130.815C109.444 132.748 107.438 137.782 105.617 143.153H150.235V131.414C148.301 122.962 144.19 103.899 117.004 84.6729Z" fill="white" stroke="#1E272A" stroke-miterlimit="10" stroke-linecap="round" stroke-linejoin="round"/>
<path d="M117.513 89.8398C116.698 91.2657 115.679 93.6642 115.086 95.194L117.513 89.8398Z" fill="#1A9882"/>
<path d="M117.513 89.8398C116.698 91.2657 115.679 93.6642 115.086 95.194" stroke="#1E272A" stroke-miterlimit="10" stroke-linecap="round" stroke-linejoin="round"/>
<path d="M118.073 83.2842L114.773 86.3728L124.795 96.7693C124.795 96.7693 127.364 96.6197 130.342 96.707L126.85 98.8145C126.85 98.8145 132.122 103.903 136.842 109.652C141.562 115.401 148.355 123.735 150.234 131.405C148.238 119.687 144.566 109.224 134.428 97.979C124.289 86.7428 118.073 83.2842 118.073 83.2842Z" fill="white" stroke="#1E272A" stroke-miterlimit="10" stroke-linecap="round" stroke-linejoin="round"/>
<path d="M138.918 91.2119C138.918 91.2119 142.302 94.6456 143.095 96.2169H140.923L145.008 99.081C145.008 99.081 148.835 110.621 147.477 120.523" fill="white"/>
<path d="M138.918 91.2119C138.918 91.2119 142.302 94.6456 143.095 96.2169H140.923L145.008 99.081C145.008 99.081 148.835 110.621 147.477 120.523" stroke="#1E272A" stroke-miterlimit="10" stroke-linecap="round" stroke-linejoin="round"/>
<path d="M161.991 125.207C167.279 125.635 168.741 125.489 170.433 124.126C172.029 122.837 173.136 121.877 174.857 120.975C177.146 119.778 178.458 118.763 179.849 117.549C180.947 116.589 182.138 117.392 181.908 118.984C181.758 120.052 181.002 121.178 180.446 122.039C179.89 122.899 178.821 123.88 179.853 123.914C181.879 123.98 184.226 123.585 185.526 122.484C185.392 122.243 185.162 121.86 184.866 121.503C187.034 121.548 188.095 122.978 187.568 124.458C187.042 125.938 185.63 126.25 185.797 126.89C185.964 127.53 186.219 128.794 185.429 129.821C184.64 130.848 184.561 130.49 184.368 131.617C184.176 132.743 183.299 134.298 182.263 134.738C181.227 135.179 177.881 135.591 174.882 135.882C171.151 136.243 167.948 136.567 164.414 136.942C159.785 137.432 151.376 137.573 146.643 137.715C141.305 137.873 138.23 137.752 133.886 134.219C129.496 130.648 114.574 117.25 114.574 117.25V96.2742C117.753 95.9334 120.648 97.0807 125.368 102.032C131.379 108.334 140.377 118.493 145.11 123.635C145.114 123.631 158.227 124.903 161.991 125.207Z" fill="#1A9882" stroke="#1E272A" stroke-miterlimit="10" stroke-linecap="round" stroke-linejoin="round"/>
<path d="M113.587 117.753C128.303 131.201 131.265 133.546 133.884 135.711C137.468 138.675 141.069 138.646 146.074 138.667C153.359 138.696 161.559 138.006 161.559 138.006C162.307 135.441 162.804 127.011 161.346 124.529L144.745 121.894C144.745 121.894 138.124 114.681 131.386 107.195C123.871 98.8393 118.236 92.0178 110.984 96.0833" fill="white"/>
<path d="M113.587 117.753C128.303 131.201 131.265 133.546 133.884 135.711C137.468 138.675 141.069 138.646 146.074 138.667C153.359 138.696 161.559 138.006 161.559 138.006C162.307 135.441 162.804 127.011 161.346 124.529L144.745 121.894C144.745 121.894 138.124 114.681 131.386 107.195C123.871 98.8393 118.236 92.0178 110.984 96.0833" stroke="#1E272A" stroke-miterlimit="10" stroke-linecap="round" stroke-linejoin="round"/>
<path d="M109.185 141.673C107.974 141.673 106.992 140.696 106.992 139.49V122.455H111.378V139.49C111.378 140.696 110.397 141.673 109.185 141.673Z" fill="white" stroke="#1E272A" stroke-miterlimit="10" stroke-linecap="round" stroke-linejoin="round"/>
<path d="M112.016 120.522H106.352V122.455H112.016V120.522Z" fill="white" stroke="#1E272A" stroke-miterlimit="10" stroke-linecap="round" stroke-linejoin="round"/>
<path d="M109.182 140.276C108.66 140.276 108.238 139.856 108.238 139.337V128.263H110.122V139.337C110.126 139.856 109.705 140.276 109.182 140.276Z" fill="#1A9882"/>
<path d="M117.392 141.673C116.181 141.673 115.199 140.696 115.199 139.49V122.455H119.585V139.49C119.585 140.696 118.604 141.673 117.392 141.673Z" fill="white" stroke="#1E272A" stroke-miterlimit="10" stroke-linecap="round" stroke-linejoin="round"/>
<path d="M120.219 120.522H114.555V122.455H120.219V120.522Z" fill="white" stroke="#1E272A" stroke-miterlimit="10" stroke-linecap="round" stroke-linejoin="round"/>
<path d="M117.385 140.276C116.863 140.276 116.441 139.856 116.441 139.337V128.263H118.325V139.337C118.325 139.856 117.903 140.276 117.385 140.276Z" fill="#1A9882"/>
<path d="M125.592 141.673C124.38 141.673 123.398 140.696 123.398 139.49V122.455H127.785V139.49C127.789 140.696 126.803 141.673 125.592 141.673Z" fill="white" stroke="#1E272A" stroke-miterlimit="10" stroke-linecap="round" stroke-linejoin="round"/>
<path d="M128.422 120.522H122.758V122.455H128.422V120.522Z" fill="white" stroke="#1E272A" stroke-miterlimit="10" stroke-linecap="round" stroke-linejoin="round"/>
<path d="M125.589 140.276C125.066 140.276 124.645 139.856 124.645 139.337V128.263H126.528V139.337C126.533 139.856 126.111 140.276 125.589 140.276Z" fill="#F55571"/>
<path d="M133.795 141.673C132.583 141.673 131.602 140.696 131.602 139.49V122.455H135.988V139.49C135.988 140.696 135.006 141.673 133.795 141.673Z" fill="white" stroke="#1E272A" stroke-miterlimit="10" stroke-linecap="round" stroke-linejoin="round"/>
<path d="M136.625 120.522H130.961V122.455H136.625V120.522Z" fill="white" stroke="#1E272A" stroke-miterlimit="10" stroke-linecap="round" stroke-linejoin="round"/>
<path d="M133.792 140.276C133.27 140.276 132.848 139.856 132.848 139.337V128.263H134.732V139.337C134.732 139.856 134.31 140.276 133.792 140.276Z" fill="#1A9882"/>
<path d="M140.098 124.488H102.895V125.469H140.098V124.488Z" fill="#1E272A" stroke="#1E272A" stroke-miterlimit="10" stroke-linecap="round" stroke-linejoin="round"/>
<path d="M138.137 142.176V125.469H139.123V142.176C139.123 142.408 138.935 142.595 138.701 142.595H138.563C138.329 142.595 138.137 142.408 138.137 142.176Z" fill="#1E272A" stroke="#1E272A" stroke-miterlimit="10" stroke-linecap="round" stroke-linejoin="round"/>
<path d="M104.853 142.176V125.469H103.867V142.176C103.867 142.408 104.055 142.595 104.289 142.595H104.427C104.661 142.595 104.853 142.408 104.853 142.176Z" fill="#1E272A" stroke="#1E272A" stroke-miterlimit="10" stroke-linecap="round" stroke-linejoin="round"/>
<path d="M140.098 137.537H102.895V138.518H140.098V137.537Z" fill="#1E272A" stroke="#1E272A" stroke-miterlimit="10" stroke-linecap="round" stroke-linejoin="round"/>
<path d="M90.4207 139.898H54.7383V143.153H93.6915C93.6915 141.353 92.2295 139.898 90.4207 139.898Z" fill="#1E272A"/>
<path d="M61.2029 143.149H11.0628C10.1856 143.149 9.22063 142.114 8.89898 140.842L0.101595 105.621C-0.215879 104.344 0.235268 103.313 1.1125 103.313H51.2526C52.1298 103.313 53.0947 104.349 53.4164 105.621L62.2138 140.842C62.5312 142.119 62.0801 143.149 61.2029 143.149Z" fill="#F55571"/>
<path d="M27.3276 124.205C27.6952 125.943 29.7128 127.352 31.8265 127.352C33.9403 127.352 35.3564 125.943 34.9888 124.205C34.6212 122.468 32.6035 121.059 30.4898 121.059C28.3761 121.059 26.96 122.468 27.3276 124.205Z" fill="white" stroke="#1E272A" stroke-miterlimit="10" stroke-linecap="round" stroke-linejoin="round"/>
<path d="M3.25899 100.773L4.52889 105.853H2.22302L0.953125 100.773H3.25899Z" fill="#1A9882"/>
<path d="M7.27852 100.773L8.54842 105.853H6.24255L4.97266 100.773H7.27852Z" fill="#FF95FB"/>
<path d="M11.2941 100.773L12.564 105.853H10.2582L8.98828 100.773H11.2941Z" fill="#1E272A"/>
</svg>
